<svg id="圖層_1" data-name="圖層 1" xmlns="http://www.w3.org/2000/svg" viewBox="0 0 768 768"><defs><style>.cls-1{fill:#1a6583;opacity:0.46;}.cls-2{fill:#fff;}</style></defs><title>charter_logo</title><circle class="cls-1" cx="384" cy="384.13" r="384"/><path class="cls-2" d="M246.3,176.26a25.43,25.43,0,0,0-25.4,25.41V577.21a25.45,25.45,0,0,0,25.4,25.42H473.09V552.72A40,40,0,0,1,513,512.82h55.34V201.67a25.43,25.43,0,0,0-25.41-25.41ZM502.11,408.9h-215V391.41h215Zm0-61.2h-215V330.21h215Zm0-61.2h-215V269h215Z"/><path class="cls-2" d="M487.59,552.72v40.35l69.74-65.76H513A25.44,25.44,0,0,0,487.59,552.72Z"/></svg>