<svg id="圖層_1" data-name="圖層 1" xmlns="http://www.w3.org/2000/svg" viewBox="0 0 768 766"><defs><style>.cls-1{fill:#1a6583;opacity:0.46;}.cls-2{fill:#fff;}</style></defs><title>clock_logo</title><ellipse class="cls-1" cx="384" cy="382.96" rx="384" ry="382.96"/><path class="cls-2" d="M172.68,387.09c0,115.31,93.72,208.79,209.34,208.79S591.37,502.4,591.37,387.09,497.65,178.31,382,178.31,172.68,271.79,172.68,387.09Zm371,0c0,89.06-72.38,161.24-161.68,161.24S220.35,476.15,220.35,387.09,292.73,225.87,382,225.87,543.7,298,543.7,387.09Z"/><path class="cls-2" d="M374.6,264V386.34a6.51,6.51,0,0,0,13,0V264a6.51,6.51,0,0,0-13,0Z"/><path class="cls-2" d="M267.06,433.7c-3.31,1.38-5.78,3-5.52,3.65s3.17,0,6.49-1.35l113.24-47.06c3.31-1.37,5.78-3,5.52-3.64s-3.17,0-6.48,1.35Z"/><path class="cls-2" d="M384.22,377.74a9.49,9.49,0,1,0,0,19h80.43a9.49,9.49,0,1,0,0-19Z"/><path class="cls-2" d="M366.8,386A16.21,16.21,0,1,0,383,369.86,16.18,16.18,0,0,0,366.8,386Z"/></svg>