<svg id="圖層_1" data-name="圖層 1" xmlns="http://www.w3.org/2000/svg" viewBox="0 0 768 768"><defs><style>.cls-1{fill:#1a6583;opacity:0.46;}.cls-2{fill:#fff;}</style></defs><title>organization_logo</title><circle class="cls-1" cx="386.5" cy="383.5" r="383.5"/><path class="cls-2" d="M215.72,243.12a91,91,0,1,0,77.37,138.81c-12.58-20.48-28.89-57.48-9.69-108.45A90.77,90.77,0,0,0,215.72,243.12Z"/><path class="cls-2" d="M278.11,412.51c-1.11.88-2.48,1.9-4,3a62.48,62.48,0,0,1-117.21-.55c-2.83-2-5-3.75-6.27-4.8-.46-.41-.94-.78-1.39-1.19l-.77.68c-56.68,49-55.9,134.78-55.84,138.4l.05,3H236.87c2.21-33.24,12-92.37,51.74-136.11a63.66,63.66,0,0,0-6.88-5.55c-.79.72-1.6,1.42-2.42,2.12Z"/><path class="cls-2" d="M465.08,406.23c-.91.82-1.84,1.63-2.77,2.42-.45.4-.91.77-1.37,1.15a125.84,125.84,0,0,1-56.38,24.68c-2.68.37-5.34.8-8.07,1-2.31.13-4.62.23-7,.23a111.71,111.71,0,0,1-24.7-2.81c-25.15-6.4-44.36-21.24-49.82-25.81-.52-.47-1.08-.88-1.58-1.36l-.89.77c-64.89,56.11-64,154.3-63.92,158.46l0,3.48H526.35l-.15-3.69C521.59,451.27,476.22,413.76,465.08,406.23Zm-38.59,76.84-39-19.89-39,19.89v-48.3l39,20.85,39-20.85Z"/><path class="cls-2" d="M285.76,318.84A104.44,104.44,0,0,0,390.07,423.11h0A104.31,104.31,0,1,0,285.76,318.84Z"/><path class="cls-2" d="M536.78,545.81l117,0,0-2.73c.06-3.26-1.07-76.09-52-120.14l-.69-.6c-1.64,1.52-3.35,3-5.1,4.38l-36.21,70.48-6.43-41.35,10.32-16.67a87.58,87.58,0,0,1-20.48,2.43c-1.83,0-3.65-.07-5.46-.19a87.35,87.35,0,0,1-9.78-1.17c-1.25-.22-2.5-.47-3.74-.74l10.16,16.33-6.77,39.38A283.79,283.79,0,0,1,536.78,545.81Z"/><path class="cls-2" d="M546.78,430.47a81.81,81.81,0,1,0-48.95-147.28,109.66,109.66,0,0,1-20.14,109.15A81.8,81.8,0,0,0,546.78,430.47Z"/></svg>